# xmcd
#
# Track frame offsets:
#	150
#	11721
#	25576
#	44278
#	56749
#	69019
#	82000
#	100463
#	128330
#	147972
#	164655
#	177396
#	191049
#
# Disc length: 2755 seconds
#
# Revision: 0
# Processed by: cddbd v1.5.1PL0 Copyright (c) Steve Scherf et al.
# Submitted via: dBpowerAMP V4.0
#
DISCID=ae0ac10d
DTITLE=Flor da Serra - vol. 13
DYEAR=2003
DGENRE=Country
TTITLE0=Rio de Cerveja
TTITLE1=Carolina
TTITLE2=Noite de Amor
TTITLE3=Sogra Louca
TTITLE4=Olhos de Anjo
TTITLE5=Mosquito no Angu
TTITLE6=Te Amo pra Valer
TTITLE7=Festa do Músico
TTITLE8=Teu Sorriso
TTITLE9=Mulher Ciumenta
TTITLE10=Peão, Mulher e Rodeio
TTITLE11=Dói-dói
TTITLE12=Cerveja Vai, Cerveja Vem
EXTD=
EXTT0=
EXTT1=
EXTT2=
EXTT3=
EXTT4=
EXTT5=
EXTT6=
EXTT7=
EXTT8=
EXTT9=
EXTT10=
EXTT11=
EXTT12=
PLAYORDER=
